<svg height="496pt" viewBox="0 0 496 496" width="496pt" xmlns="http://www.w3.org/2000/svg"><path d="m488 256h-24v-40c0-77.6875-48.574219-146.535156-121.257812-172.894531l1.242187-18.578125c.152344-2.207032-.625-4.375-2.136719-6-1.519531-1.605469-3.632812-2.527344-5.847656-2.527344h-24.488281l.472656-7.503906c.136719-2.199219-.640625-4.367188-2.152344-5.976563-1.511719-1.609375-3.625-2.519531-5.832031-2.519531h-112c-2.207031 0-4.320312.910156-5.832031 2.519531s-2.289063 3.777344-2.152344 5.976563l.472656 7.503906h-24.488281c-2.214844 0-4.328125.921875-5.839844 2.535156-1.511718 1.617188-2.289062 3.792969-2.136718 6l1.242187 18.578125c-72.691406 26.351563-121.265625 95.199219-121.265625 172.886719v40h-24c-4.414062 0-8 3.574219-8 8v48c0 4.425781 3.585938 8 8 8h480c4.414062 0 8-3.574219 8-8v-48c0-4.425781-3.585938-8-8-8zm-40-40v40h-119.449219l13.082031-196.207031c63.933594 25.191406 106.367188 86.832031 106.367188 156.207031zm-120.550781-184-14.929688 224h-16l14-224zm-31.960938-16-15 240h-64.96875l-15.007812-240zm-110 16 14 224h-16l-14.9375-224zm-137.488281 184c0-69.375 42.433594-131.015625 106.367188-156.207031l13.082031 196.207031h-119.449219zm432 88h-464v-32h464zm0 0"/><path d="m40 352h-40v16h32v16h-32v16h32v32c0 2.839844 1.511719 5.480469 3.96875 6.910156l96 56c1.222656.714844 2.617188 1.089844 4.03125 1.089844h80c3.671875 0 6.871094-2.496094 7.761719-6.0625l14.484375-57.9375h19.507812l14.484375 57.9375c.890625 3.566406 4.089844 6.0625 7.761719 6.0625h80c1.414062 0 2.808594-.375 4.03125-1.089844l96-56c2.457031-1.429687 3.96875-4.070312 3.96875-6.910156v-32h32v-16h-32v-16h32v-16zm408 75.40625-90.167969 52.59375h-71.59375l-14.484375-57.9375c-.882812-3.566406-4.082031-6.0625-7.753906-6.0625h-32c-3.671875 0-6.871094 2.496094-7.761719 6.0625l-14.484375 57.9375h-71.59375l-90.160156-52.59375v-59.40625h400zm0 0"/><path d="m362.339844 397.660156 11.3125-11.3125 32 32-11.3125 11.3125zm0 0"/><path d="m314.339844 397.660156 11.316406-11.316406 32 32-11.316406 11.316406zm0 0"/></svg>