<svg height="496pt" viewBox="-80 0 496 496" width="496pt" xmlns="http://www.w3.org/2000/svg"><path d="m328 176h-8v-24c0-48.152344-29.488281-92.097656-73.695312-110.640625l1.65625-16.558594c.222656-2.25-.511719-4.496093-2.03125-6.167969-1.515626-1.679687-3.671876-2.632812-5.929688-2.632812h-24.695312l.664062-7.273438c.199219-2.238281-.542969-4.460937-2.066406-6.125-1.511719-1.65625-3.65625-2.601562-5.902344-2.601562h-80c-2.246094 0-4.390625.945312-5.902344 2.601562-1.511718 1.664063-2.265625 3.878907-2.066406 6.125l.664062 7.273438h-24.695312c-2.257812 0-4.414062.953125-5.929688 2.632812-1.511718 1.671876-2.253906 3.910157-2.03125 6.167969l1.65625 16.558594c-44.207031 18.542969-73.695312 62.488281-73.695312 110.640625v24h-8c-4.425781 0-8 3.574219-8 8v32c0 4.425781 3.574219 8 8 8h24v88c0 41.441406 18.679688 78.542969 48 103.503906v80.496094h16v-68.832031c20.910156 13.121093 45.542969 20.832031 72 20.832031s51.089844-7.710938 72-20.832031v68.832031h16v-80.496094c29.320312-24.96875 48-62.070312 48-103.503906v-88h24c4.425781 0 8-3.574219 8-8v-32c0-4.425781-3.574219-8-8-8zm-24-24v24h-71.160156l11.800781-117.960938c35.808594 17.097657 59.359375 53.871094 59.359375 93.960938zm-72.839844-120-14.398437 144h-16l13.085937-144zm-31.921875-16-14.550781 160h-33.382812l-14.542969-160zm-77.09375 16 13.085938 144h-16l-14.398438-144zm-90.144531 120c0-40.089844 23.550781-76.863281 59.359375-93.960938l11.800781 117.960938h-71.160156zm32 136h-16v-16h16zm104 144c-66.167969 0-120-53.832031-120-120v-8h16v8c0 4.425781 3.574219 8 8 8h72c3.671875 0 6.863281-2.496094 7.761719-6.0625l6.484375-25.9375h19.507812l6.492188 25.9375c.890625 3.566406 4.082031 6.0625 7.753906 6.0625h72c4.425781 0 8-3.574219 8-8v-8h16v8c0 66.167969-53.832031 120-120 120zm-88-128v-48h176v48h-57.753906l-6.492188-25.9375c-.890625-3.566406-4.082031-6.0625-7.753906-6.0625h-32c-3.671875 0-6.863281 2.496094-7.761719 6.0625l-6.484375 25.9375zm192-32h16v16h-16zm16-16h-16v-8c0-4.425781-3.574219-8-8-8h-192c-4.425781 0-8 3.574219-8 8v8h-16v-32h240zm32-48h-304v-16h304zm0 0"/><path d="m225.777344 362.910156c-13.601563 13.59375-31.679688 21.089844-50.914063 21.089844h-13.71875c-19.234375 0-37.3125-7.496094-50.914062-21.089844l-.566407-.566406-11.3125 11.3125.570313.566406c16.605469 16.617188 38.710937 25.777344 62.222656 25.777344h13.71875c23.503907 0 45.609375-9.160156 62.226563-25.777344l.566406-.566406-11.3125-11.3125zm0 0"/><path d="m162.34375 365.65625c1.558594 1.558594 3.609375 2.34375 5.65625 2.34375s4.097656-.785156 5.65625-2.34375l13.65625-13.65625h12.6875v-16h-16c-2.128906 0-4.160156.839844-5.65625 2.34375l-10.34375 10.34375-10.34375-10.34375c-1.496094-1.503906-3.527344-2.34375-5.65625-2.34375h-16v16h12.6875zm0 0"/></svg>