<svg height="496pt" viewBox="0 0 496 496" width="496pt" xmlns="http://www.w3.org/2000/svg"><path d="m104 416c-13.230469 0-24 10.769531-24 24s10.769531 24 24 24 24-10.769531 24-24-10.769531-24-24-24zm0 32c-4.414062 0-8-3.585938-8-8s3.585938-8 8-8 8 3.585938 8 8-3.585938 8-8 8zm0 0"/><path d="m368 416c-13.230469 0-24 10.769531-24 24s10.769531 24 24 24 24-10.769531 24-24-10.769531-24-24-24zm0 32c-4.414062 0-8-3.585938-8-8s3.585938-8 8-8 8 3.585938 8 8-3.585938 8-8 8zm0 0"/><path d="m160 176h-56c-2.585938 0-5.007812 1.246094-6.503906 3.351562l-40 56c-.976563 1.351563-1.496094 2.984376-1.496094 4.648438v24c0 4.425781 3.574219 8 8 8h96c4.425781 0 8-3.574219 8-8v-80c0-4.414062-3.574219-8-8-8zm-8 80h-80v-13.441406l36.121094-50.558594h43.878906zm0 0"/><path d="m120 288h48v16h-48zm0 0"/><path d="m490.191406 287.695312c3.441406-.984374 5.808594-4.128906 5.808594-7.695312v-112c0-3.566406-2.367188-6.710938-5.808594-7.6875l-106.191406-30.34375v-9.96875c0-4.414062-3.574219-8-8-8h-32c-4.425781 0-8 3.585938-8 8v9.96875l-106.191406 30.34375c-3.441406.976562-5.808594 4.121094-5.808594 7.6875v32h-16v-48c0-4.414062-3.574219-8-8-8h-112c-2.558594 0-4.960938 1.222656-6.472656 3.296875l-64 88c-.992188 1.367187-1.527344 3.015625-1.527344 4.703125v112h-8c-4.425781 0-8 3.574219-8 8v64c0 4.425781 3.574219 8 8 8h40.640625c-.375 2.625-.640625 5.28125-.640625 8 0 30.871094 25.128906 56 56 56s56-25.128906 56-56c0-2.71875-.265625-5.375-.640625-8h153.28125c-.375 2.625-.640625 5.28125-.640625 8 0 30.871094 25.128906 56 56 56s56-25.128906 56-56c0-2.71875-.265625-5.375-.640625-8h64.640625c4.425781 0 8-3.574219 8-8v-64c0-4.425781-3.574219-8-8-8h-24v-56.824219zm-10.191406-13.726562-64 18.277344v-136.492188l64 18.285156zm-176 78.03125v-43.105469l32 9.144531v9.960938c0 4.425781 3.574219 8 8 8h32c4.425781 0 8-3.574219 8-8v-9.960938l32-9.144531v43.105469zm-74.191406-64.304688 26.191406 7.480469v56.824219h-48v-104h16v32c0 3.566406 2.367188 6.710938 5.808594 7.695312zm42.191406 12.058594 16 4.566406v47.679688h-16zm128-148.578125v145.648438l-16 4.566406v-154.78125zm-48-23.175781h16v192h-16zm-16 173.390625-16-4.566406v-145.648438l16-4.566406zm-96-127.359375 64-18.289062v136.503906l-64-18.277344zm-16 41.96875v16h-16v-16zm-192 26.601562 60.070312-82.601562h99.929688v192h-160zm72 237.398438c-22.054688 0-40-17.945312-40-40s17.945312-40 40-40 40 17.945312 40 40-17.945312 40-40 40zm264 0c-22.054688 0-40-17.945312-40-40s17.945312-40 40-40 40 17.945312 40 40-17.945312 40-40 40zm112-64h-61.480469c-9.007812-18.886719-28.238281-32-50.519531-32s-41.503906 13.113281-50.519531 32h-162.960938c-9.007812-18.886719-28.238281-32-50.519531-32s-41.503906 13.113281-50.519531 32h-37.480469v-48h464zm-32-64h-16v-47.679688l16-4.566406zm0 0"/><path d="m32 112h128c17.648438 0 32-14.351562 32-32 0-11.734375-6.296875-22.167969-16.214844-27.734375.144532-1.449219.214844-2.867187.214844-4.265625 0-26.472656-21.527344-48-48-48-8.542969 0-16.6875 2.3125-23.945312 6.527344-7.085938-4.128906-15.285157-6.527344-24.054688-6.527344-26.472656 0-48 21.527344-48 48-17.648438 0-32 14.351562-32 32s14.351562 32 32 32zm128-64c0 2.230469-.304688 4.617188-.929688 7.296875-.957031 4.117187 1.449219 8.269531 5.496094 9.488281 6.839844 2.046875 11.433594 8.167969 11.433594 15.214844 0 8.824219-7.175781 16-16 16h-20.449219c2.753907-4.726562 4.449219-10.144531 4.449219-16 0-11.734375-6.296875-22.167969-16.214844-27.734375.144532-1.449219.214844-2.867187.214844-4.265625 0-11.40625-4.015625-21.886719-10.6875-30.136719 3.398438-1.199219 6.984375-1.863281 10.6875-1.863281 17.648438 0 32 14.351562 32 32zm-128 16c2.167969 0 4.273438.433594 6.265625 1.273438 2.8125 1.199218 6.046875.679687 8.34375-1.304688 2.300781-1.976562 3.285156-5.105469 2.535156-8.046875-.785156-3.027344-1.144531-5.539063-1.144531-7.921875 0-17.648438 14.351562-32 32-32s32 14.351562 32 32c0 2.230469-.304688 4.617188-.929688 7.296875-.957031 4.117187 1.449219 8.269531 5.496094 9.488281 6.839844 2.046875 11.433594 8.167969 11.433594 15.214844 0 8.824219-7.175781 16-16 16h-80c-8.824219 0-16-7.175781-16-16s7.175781-16 16-16zm0 0"/></svg>